<?xml version="1.0" standalone="no"?>
<!DOCTYPE svg PUBLIC "-//W3C//DTD SVG 20010904//EN"
 "http://www.w3.org/TR/2001/REC-SVG-20010904/DTD/svg10.dtd">
<svg version="1.0" xmlns="http://www.w3.org/2000/svg"
 width="1024.000000pt" height="1024.000000pt" viewBox="0 0 1024.000000 1024.000000"
 preserveAspectRatio="xMidYMid meet">
<metadata>
Created by potrace 1.16, written by Peter Selinger 2001-2019
</metadata>
<g transform="translate(0.000000,1024.000000) scale(0.100000,-0.100000)"
fill="#000000" stroke="none">
<path d="M0 5120 l0 -5120 5120 0 5120 0 0 5120 0 5120 -5120 0 -5120 0 0
-5120z m5330 3900 c58 -5 134 -11 170 -14 99 -9 340 -51 480 -84 121 -30 399
-117 470 -148 19 -8 44 -19 55 -24 11 -5 49 -21 85 -35 122 -49 476 -238 547
-291 17 -13 35 -24 40 -24 5 0 31 -17 59 -37 28 -21 87 -65 133 -98 45 -33 99
-75 119 -92 20 -18 42 -33 49 -33 7 0 16 -6 20 -13 4 -8 40 -41 78 -74 157
-135 439 -438 515 -553 8 -13 26 -37 40 -54 54 -66 57 -70 38 -64 -9 4 -19 1
-21 -6 -4 -9 3 -13 21 -13 14 0 28 -6 30 -12 2 -6 9 -17 16 -24 7 -7 18 -22
24 -34 10 -19 8 -25 -18 -47 -21 -17 -30 -33 -29 -53 l1 -28 11 25 c36 74 79
98 68 36 -1 -5 4 -13 11 -17 10 -7 10 -11 0 -21 -6 -6 -12 -15 -12 -20 0 -11
28 2 33 15 2 7 3 4 2 -5 -2 -10 1 -18 7 -18 5 0 6 -4 3 -10 -3 -5 1 -10 9 -10
9 0 16 -4 16 -10 0 -5 -6 -9 -12 -7 -8 1 -13 -9 -12 -28 0 -16 -4 -33 -10 -37
-17 -12 7 -9 24 2 8 5 11 10 7 10 -4 0 -2 10 4 22 11 21 13 20 34 -26 24 -52
22 -85 -4 -93 -9 -2 -24 -8 -33 -13 -11 -6 -18 -5 -20 2 -3 8 -13 4 -28 -10
-13 -12 -27 -22 -30 -22 -5 0 -94 176 -95 190 -3 22 -19 50 -29 50 -18 0 -168
219 -170 247 0 13 -4 23 -8 23 -14 0 -8 23 10 36 9 7 12 14 5 14 -6 0 -18 -7
-27 -15 -8 -8 -19 -15 -24 -15 -11 0 -9 58 2 81 4 8 0 4 -9 -8 l-16 -21 -40
38 c-35 33 -39 41 -29 59 11 21 5 26 -27 22 -6 -1 -36 23 -66 53 -42 41 -54
59 -50 75 4 16 1 21 -14 21 -27 0 -35 11 -20 28 10 13 9 14 -8 5 -16 -10 -25
-6 -52 22 -18 19 -33 39 -33 45 0 5 -7 10 -15 10 -13 0 -16 6 -14 26 0 7 -5
10 -77 51 -22 12 -35 22 -30 23 4 0 -2 8 -15 19 -19 15 -21 21 -11 33 10 13 7
15 -18 16 -38 1 -53 10 -48 31 4 13 -4 17 -35 18 -42 3 -61 13 -39 20 25 9 11
21 -38 34 -28 7 -58 22 -68 33 -16 20 -16 20 1 7 21 -17 34 -9 13 8 -13 11
-31 17 -57 20 -4 1 -6 9 -5 19 0 10 -7 18 -19 18 -11 1 -26 2 -32 3 -7 1 -13
8 -13 17 0 8 -4 13 -9 9 -5 -3 -16 1 -24 9 -8 8 -18 12 -23 8 -5 -4 -2 1 5 11
11 14 11 17 -2 17 -8 0 -18 -6 -20 -12 -3 -8 -6 -5 -6 5 -1 10 -5 16 -10 12
-5 -3 -16 2 -24 10 -9 8 -22 15 -30 15 -8 0 -17 9 -20 19 -3 11 -17 22 -36 26
-17 3 -35 14 -41 23 -5 9 -10 13 -10 9 0 -4 -9 -3 -20 3 -11 6 -18 15 -15 21
4 5 -9 9 -29 9 -25 0 -36 4 -36 15 0 8 -9 16 -20 17 -11 0 -26 1 -32 2 -7 1
-22 11 -33 24 -11 12 -24 22 -28 22 -4 0 -29 11 -56 24 -27 13 -61 26 -76 30
-25 6 -31 34 -7 29 6 -2 9 4 6 12 -8 19 -24 19 -24 1 0 -17 -35 -31 -51 -21
-6 4 -9 16 -6 26 6 22 -8 26 -17 4 -7 -19 -20 -19 -38 -2 -7 8 -37 20 -66 26
-28 7 -50 17 -47 21 3 4 -23 13 -57 19 -34 6 -64 15 -67 19 -6 9 -45 20 -91
26 -40 5 -42 5 -34 17 4 8 -3 9 -24 4 -18 -4 -40 -1 -54 6 -20 11 -37 13 -120
18 -16 0 -27 6 -25 13 1 8 -14 11 -50 10 -36 -1 -53 2 -53 11 0 8 -17 12 -47
13 -131 3 -249 16 -259 29 -6 8 -14 12 -17 8 -9 -9 -207 -10 -207 -1 0 4 -6 5
-12 3 -7 -2 -76 -6 -153 -9 -77 -3 -167 -8 -200 -11 -103 -10 -318 -46 -357
-61 -20 -7 -79 -19 -130 -25 -51 -6 -97 -15 -102 -20 -6 -5 -17 -9 -25 -9 -9
0 -27 -6 -41 -13 -14 -7 -63 -24 -110 -36 -92 -25 -93 -26 -190 -65 -36 -14
-70 -26 -76 -26 -6 0 -43 -16 -83 -35 -39 -19 -78 -35 -86 -35 -7 0 -16 -4
-19 -9 -3 -5 -56 -35 -118 -66 -61 -31 -118 -63 -126 -71 -7 -8 -17 -14 -22
-14 -5 0 -28 -13 -52 -28 -24 -15 -60 -37 -82 -47 -21 -11 -50 -32 -65 -47
-14 -16 -30 -28 -36 -28 -5 0 -26 -14 -45 -30 -19 -16 -40 -34 -47 -40 -7 -5
-19 -10 -27 -10 -25 0 -45 -11 -40 -23 2 -7 -21 -28 -51 -47 -30 -19 -52 -41
-50 -47 3 -8 -4 -13 -15 -13 -10 0 -25 -8 -32 -18 -7 -10 -28 -27 -45 -37 -18
-11 -33 -26 -33 -33 0 -17 -46 -59 -72 -68 -10 -3 -18 -11 -18 -19 0 -7 -12
-23 -27 -36 -14 -13 -40 -38 -57 -55 -17 -16 -43 -38 -58 -47 -16 -10 -28 -26
-28 -35 0 -10 -15 -29 -32 -42 -18 -13 -37 -29 -41 -37 -4 -7 -21 -13 -37 -13
-16 0 -32 -5 -36 -11 -5 -9 4 -10 32 -5 l39 8 -29 -31 c-17 -17 -37 -31 -45
-31 -14 0 -14 -2 -1 -10 12 -7 9 -13 -14 -31 -45 -36 -75 -71 -70 -84 3 -7 -9
-26 -25 -43 -17 -17 -31 -35 -31 -41 0 -6 -9 -16 -19 -23 -10 -6 -17 -17 -14
-25 3 -7 -7 -18 -21 -25 -15 -6 -26 -18 -24 -27 4 -22 -62 -121 -81 -121 -12
0 -12 -3 -3 -12 16 -16 15 -28 -3 -28 -8 0 -15 -9 -15 -19 0 -10 -13 -33 -29
-50 -20 -22 -27 -37 -24 -56 4 -17 0 -27 -11 -31 -9 -3 -16 -16 -16 -29 0 -29
-38 -78 -56 -71 -17 7 -19 -25 -3 -41 7 -7 8 -17 3 -25 -5 -7 -7 -21 -6 -30 2
-13 -3 -18 -18 -18 -16 0 -20 -4 -16 -16 4 -9 -5 -36 -19 -61 -16 -30 -20 -43
-11 -40 9 4 5 -8 -10 -30 -13 -19 -22 -39 -19 -43 2 -4 -4 -15 -15 -25 -14
-13 -17 -23 -10 -40 6 -16 4 -27 -8 -40 -9 -10 -11 -15 -4 -11 20 12 14 -10
-12 -41 -19 -22 -24 -37 -20 -61 3 -18 1 -32 -4 -32 -5 0 -8 -16 -5 -35 3 -27
0 -33 -11 -29 -21 8 -29 -12 -14 -36 11 -17 11 -22 -1 -29 -7 -5 -10 -14 -7
-20 9 -15 -15 -81 -29 -81 -6 0 -17 6 -24 13 -11 10 -13 9 -9 -3 2 -8 14 -19
26 -25 26 -11 29 -35 6 -35 -13 0 -14 -3 -5 -14 18 -21 -2 -29 -44 -17 -21 5
-35 6 -35 0 0 -5 3 -9 8 -10 4 0 17 -2 29 -3 32 -4 37 -12 34 -65 -1 -17 -5
-22 -19 -17 -15 5 -15 5 1 -8 23 -18 14 -58 -11 -55 -30 3 -43 -1 -38 -10 3
-5 14 -7 24 -5 36 9 44 -9 26 -55 -13 -33 -14 -44 -4 -56 8 -10 9 -19 3 -27
-14 -18 -24 -88 -12 -88 5 0 9 -5 9 -11 0 -5 -4 -8 -9 -5 -5 3 -11 -1 -15 -9
-3 -10 1 -15 12 -15 15 0 17 -11 17 -75 0 -53 -4 -75 -12 -75 -16 0 -16 -10 1
-33 9 -12 11 -29 6 -57 -9 -48 -15 -56 -32 -43 -7 5 -24 6 -38 2 -21 -6 -22
-7 -5 -8 11 -1 31 -8 44 -17 18 -13 25 -14 31 -4 12 19 17 -80 5 -100 -5 -10
-18 -33 -29 -51 l-18 -34 30 28 30 29 5 -54 c2 -29 9 -67 15 -85 l10 -32 -36
6 c-21 3 -64 6 -97 7 -33 0 -58 5 -57 10 2 5 -2 13 -10 18 -9 7 -6 8 10 4 62
-16 65 -16 32 2 -19 11 -37 19 -40 17 -3 -2 -6 8 -7 22 0 16 2 21 7 14 4 -7
20 -11 36 -9 l29 3 -25 23 c-13 12 -32 22 -42 22 -23 0 -25 45 -2 58 11 6 13
11 5 16 -6 4 -11 1 -11 -6 0 -11 -2 -11 -9 0 -4 7 -8 30 -7 50 1 29 5 37 19
36 9 -1 17 4 17 12 0 13 -12 18 -32 15 -19 -3 -6 31 14 37 l22 5 -23 9 c-21 7
-23 13 -20 71 4 65 22 93 53 81 9 -3 16 -1 16 5 0 6 -10 11 -22 11 -39 0 -50
14 -47 61 4 64 15 82 47 75 15 -3 21 -3 14 0 -6 3 -10 10 -7 14 3 5 -3 7 -13
5 -10 -2 -25 1 -33 6 -8 5 -9 9 -3 9 6 0 9 13 6 30 -3 21 0 30 9 30 11 0 11 2
-1 10 -12 8 -12 10 5 10 18 1 18 2 4 13 -13 10 -14 24 -9 77 4 36 10 76 14 90
3 14 8 45 11 70 10 78 13 93 28 157 8 34 12 64 9 67 -3 3 3 6 14 6 15 0 16 2
5 9 -12 7 -12 13 -3 24 7 7 9 17 5 20 -3 4 -2 7 3 7 5 0 10 17 11 37 1 21 6
39 12 41 5 2 8 9 5 16 -3 7 1 26 7 42 7 16 13 35 15 41 33 161 241 611 373
810 22 34 41 64 41 68 0 5 92 137 167 240 132 180 394 459 568 604 380 317
885 597 1320 730 280 86 618 151 870 167 55 4 102 8 104 10 9 8 270 4 371 -6z
m794 -2041 c105 -22 266 -78 346 -121 85 -45 208 -120 375 -226 11 -6 29 -16
40 -21 11 -5 45 -21 75 -36 121 -59 286 -96 393 -88 148 12 303 70 457 172
130 86 209 116 273 107 55 -8 102 -37 127 -78 16 -28 17 -34 6 -48 -8 -8 -13
-29 -10 -47 2 -18 0 -33 -5 -33 -5 0 -23 -11 -39 -25 -16 -13 -31 -22 -34 -20
-7 8 -78 -64 -78 -79 0 -8 -7 -16 -15 -20 -17 -6 -21 9 -5 19 13 8 9 66 -4 62
-6 -2 -13 -14 -16 -28 -3 -13 -13 -24 -22 -24 -9 0 -26 -13 -38 -28 -12 -15
-28 -27 -36 -27 -17 0 -18 16 -1 27 18 12 39 53 27 53 -6 0 -30 -18 -54 -40
-24 -22 -46 -40 -50 -40 -4 0 -16 -9 -28 -20 -23 -21 -108 -53 -117 -44 -3 4
0 9 7 11 6 3 12 9 12 15 0 5 -13 -1 -29 -14 -64 -51 -76 -58 -103 -58 -15 0
-31 -6 -35 -14 -5 -8 -19 -19 -33 -25 -14 -5 -18 -10 -10 -10 8 0 26 6 40 14
29 17 50 19 50 5 0 -5 -15 -13 -32 -18 -18 -5 -32 -14 -30 -21 1 -7 -6 -9 -22
-5 -13 3 -27 1 -30 -5 -4 -6 -16 -11 -27 -11 -11 0 -22 -6 -25 -14 -6 -15 -34
-11 -34 5 0 5 19 18 43 29 29 14 43 27 44 41 2 21 2 21 -22 -1 -14 -13 -27
-21 -30 -18 -8 8 27 42 58 56 15 6 38 17 51 23 23 11 26 39 4 39 -5 0 -6 6 -2
13 4 6 4 9 0 5 -5 -4 -19 -3 -32 2 -22 9 -23 8 -12 -9 6 -11 18 -17 25 -14 15
6 16 2 7 -21 -8 -22 -21 -20 -27 4 -4 15 -12 19 -35 16 -40 -4 -58 -16 -42
-26 9 -6 6 -10 -9 -15 -16 -5 -20 -12 -16 -25 4 -13 -1 -22 -14 -29 -26 -14
-31 -14 -31 4 0 8 5 15 10 15 6 0 10 6 10 13 0 6 -12 -1 -26 -17 -19 -21 -22
-31 -14 -41 6 -8 18 -11 26 -8 8 3 14 1 14 -5 0 -5 -7 -12 -15 -16 -8 -3 -15
-1 -15 4 0 6 -7 10 -15 10 -14 0 -19 -12 -16 -32 0 -5 -4 -8 -10 -8 -6 0 -9 6
-6 13 21 51 21 50 -3 42 -16 -5 -21 -4 -18 6 3 8 12 13 22 11 9 -2 16 2 16 8
0 8 -11 9 -32 5 -40 -9 -48 -13 -48 -26 0 -6 5 -7 10 -4 6 3 10 1 10 -4 0 -6
-8 -11 -19 -11 -10 0 -24 -7 -31 -15 -7 -9 -21 -13 -31 -10 -11 4 -19 2 -19
-4 0 -6 -7 -11 -15 -11 -20 0 -19 17 3 29 19 11 20 20 0 32 -10 7 -9 9 3 9 9
0 19 7 23 15 4 10 -1 15 -15 15 -12 0 -23 -8 -26 -20 -3 -11 -11 -20 -17 -20
-7 0 -17 -5 -24 -12 -14 -14 -72 -21 -72 -9 0 5 9 11 21 14 13 4 18 10 14 18
-6 9 -1 10 21 5 l28 -7 -19 21 -19 21 28 -3 c40 -4 44 16 6 32 -35 15 -34 12
-15 50 9 17 13 30 10 30 -3 0 0 10 6 23 11 19 10 20 -3 9 -9 -7 -18 -26 -22
-42 -6 -32 -23 -38 -57 -20 -13 7 -19 7 -19 0 0 -5 5 -10 10 -10 18 0 11 -18
-10 -25 -11 -3 -20 -11 -20 -16 0 -6 9 -6 23 1 20 9 20 9 3 -2 -11 -7 -32 -26
-47 -42 -18 -19 -33 -27 -44 -22 -14 5 -15 9 -5 21 7 8 18 15 24 15 6 0 17 9
23 20 10 16 10 18 -1 14 -8 -3 -18 6 -25 23 -8 19 -26 34 -56 46 -50 21 -65
17 -65 -18 0 -14 -9 -29 -20 -35 -31 -17 -43 -2 -21 26 26 33 18 63 -10 38
-10 -9 -23 -13 -29 -9 -6 4 -18 1 -27 -7 -13 -10 -17 -10 -20 0 -3 6 -13 12
-23 12 -20 0 -38 37 -23 49 4 4 21 17 37 29 16 12 25 22 21 22 -5 0 0 10 11
22 16 18 17 21 2 15 -9 -3 -19 -3 -21 1 -2 4 -3 2 -1 -4 3 -13 -74 -56 -87
-48 -5 3 -4 -7 1 -22 13 -33 1 -49 -29 -39 -25 8 -28 23 -5 21 9 0 19 5 22 13
3 9 -1 11 -17 6 -22 -7 -29 9 -10 21 8 5 8 9 -1 14 -8 5 0 14 23 29 39 24 51
27 41 9 -5 -10 -4 -10 6 -1 7 6 9 16 6 21 -7 12 -46 4 -46 -9 0 -5 -5 -9 -11
-9 -5 0 -7 6 -4 13 4 6 -1 3 -9 -8 -39 -48 -47 -56 -56 -50 -7 4 -6 13 0 26 8
13 7 19 0 19 -6 0 -13 -7 -16 -15 -6 -15 -35 -20 -47 -8 -4 3 -1 13 7 22 7 9
16 27 19 40 6 23 5 23 -26 -6 -28 -26 -35 -29 -60 -19 -23 8 -27 15 -22 34 5
20 3 22 -14 13 -11 -6 -21 -16 -24 -23 -2 -7 -8 -10 -12 -6 -4 4 0 33 10 63 9
31 15 59 12 62 -10 9 -26 -7 -21 -20 2 -7 -4 -22 -16 -32 -11 -10 -20 -24 -20
-32 0 -7 -11 -13 -25 -13 -26 0 -34 15 -12 23 8 3 6 7 -7 12 -11 5 -27 3 -39
-4 -13 -9 -22 -9 -26 -3 -3 6 -34 14 -68 17 -57 7 -61 9 -52 26 12 23 -3 25
-21 4 -9 -10 -22 -14 -39 -10 -14 3 -32 1 -39 -3 -7 -5 -30 -6 -50 -2 -23 3
-51 0 -75 -9 -41 -16 -57 -10 -37 14 22 27 -12 18 -39 -10 -23 -24 -48 -35
-36 -15 11 17 -3 11 -24 -11 -11 -12 -25 -19 -33 -17 -7 3 -21 -3 -32 -13 -10
-10 -33 -21 -50 -25 -17 -3 -48 -15 -69 -26 -21 -10 -42 -16 -48 -12 -6 3 -17
-2 -24 -12 -8 -11 -15 -15 -15 -11 0 5 -13 -2 -30 -16 -16 -14 -43 -28 -60
-32 -16 -4 -30 -13 -30 -21 0 -8 -4 -14 -10 -14 -5 0 -10 7 -10 16 0 14 -3 14
-15 4 -8 -7 -15 -18 -15 -26 0 -7 -9 -18 -19 -24 -29 -15 -39 8 -12 26 12 9
19 19 16 24 -7 12 -50 -4 -50 -18 0 -6 -3 -14 -7 -18 -5 -4 -8 -15 -8 -25 0
-21 -30 -34 -43 -17 -5 8 -6 3 -2 -15 5 -26 4 -27 -15 -17 -28 15 -50 6 -50
-20 0 -21 -24 -28 -35 -10 -9 15 -38 -9 -31 -25 5 -14 -37 -48 -72 -59 -29
-10 -29 11 1 25 12 5 28 22 34 36 14 30 7 47 -8 20 -11 -18 -69 -24 -69 -7 0
6 -6 10 -14 10 -8 0 -29 -28 -48 -61 -29 -54 -39 -64 -76 -74 -31 -10 -42 -10
-42 -1 0 7 -4 6 -9 -3 -17 -27 -184 -43 -194 -18 -4 10 3 12 27 9 30 -5 31 -4
13 15 -19 22 -14 33 16 33 14 0 18 -5 14 -20 -4 -16 0 -20 19 -20 24 0 33 15
13 22 -8 3 -6 14 5 36 9 18 12 32 7 32 -23 0 -110 -52 -125 -75 -14 -21 -24
-25 -67 -25 -36 0 -49 4 -46 13 2 6 18 11 36 11 17 -1 31 2 31 6 0 4 9 10 21
13 12 3 18 10 15 16 -4 7 -15 7 -31 1 -27 -10 -58 -3 -49 11 8 14 -6 10 -22
-6 -12 -11 -20 -12 -35 -5 -13 8 -19 7 -19 0 0 -6 7 -13 15 -16 8 -4 12 -10 9
-15 -6 -10 -54 -1 -68 12 -6 5 -20 9 -32 9 -13 0 -26 5 -30 12 -4 7 -3 8 4 4
7 -4 12 -3 12 2 0 6 -17 10 -37 10 -21 1 -51 3 -68 5 -16 2 -36 5 -44 5 -7 1
-11 8 -8 15 3 9 -2 13 -15 13 -12 -1 -23 5 -25 12 -3 6 2 12 11 12 8 0 17 4
20 8 7 12 -26 11 -42 -1 -16 -12 -85 22 -78 39 3 8 -7 11 -27 10 -27 -1 -32 3
-31 21 0 18 -3 20 -18 12 -14 -7 -23 -6 -34 6 -8 8 -22 15 -29 15 -23 0 -28
21 -9 36 18 14 16 15 -21 13 -59 -3 -65 -1 -65 20 0 14 -5 18 -19 14 -10 -2
-25 3 -34 12 -9 9 -25 18 -36 20 -25 5 -78 32 -85 44 -3 5 -23 9 -43 9 -21 0
-39 5 -41 11 -2 6 -16 11 -32 11 -15 0 -33 7 -40 15 -7 8 -15 13 -19 10 -12
-7 -151 17 -151 27 0 5 -8 4 -19 -2 -12 -6 -29 -7 -43 -1 -13 4 -32 5 -43 1
-35 -14 -209 -30 -249 -23 -28 4 -37 3 -32 -5 4 -6 13 -9 21 -5 8 3 15 0 15
-6 0 -15 -36 -32 -54 -25 -10 4 -18 -1 -22 -11 -6 -14 -15 -16 -53 -11 -40 5
-44 4 -28 -8 22 -17 22 -22 -3 -29 -13 -3 -18 -1 -13 6 3 7 -5 2 -19 -10 -26
-25 -67 -30 -85 -12 -9 9 -18 4 -38 -15 -31 -31 -27 -45 7 -22 26 18 38 20 38
6 0 -5 -11 -12 -25 -16 -14 -3 -25 -10 -25 -15 0 -5 -11 -9 -25 -9 -14 0 -25
-4 -25 -10 0 -5 -4 -10 -9 -10 -4 0 -7 12 -4 28 3 24 3 25 -6 5 -5 -12 -16
-25 -24 -30 -8 -4 -21 -21 -29 -38 -8 -17 -20 -28 -29 -26 -8 2 -20 4 -26 4
-7 0 -13 7 -13 14 0 8 8 13 18 12 34 -3 37 1 9 16 -25 13 -31 13 -43 1 -7 -8
-22 -12 -32 -9 -12 3 -22 -2 -25 -11 -4 -9 -14 -16 -24 -16 -17 -1 -17 -1 0
-14 23 -18 22 -23 -7 -28 -26 -5 -46 23 -46 62 0 13 -7 20 -20 20 -20 0 -20
-2 6 -45 14 -25 24 -49 20 -52 -7 -8 -38 23 -55 55 -7 13 -15 21 -19 18 -12
-7 -45 22 -37 33 3 6 -1 11 -11 11 -10 0 -14 -3 -11 -7 4 -3 2 -12 -5 -20 -9
-11 -7 -19 10 -36 12 -12 22 -16 22 -9 0 6 5 12 12 12 8 0 7 -6 -4 -16 -22
-22 -54 -10 -73 29 -36 73 24 173 148 247 28 17 71 43 94 58 245 156 410 232
618 283 100 25 332 36 430 21 156 -25 388 -120 531 -218 124 -85 229 -145 355
-203 26 -12 93 -33 150 -47 89 -22 118 -25 199 -20 53 3 109 10 125 15 174 53
217 70 288 114 444 271 590 333 872 371 46 6 232 -4 289 -15z m2319 -31 c4
-10 7 -10 18 0 7 6 17 12 21 12 15 0 8 -29 -10 -42 -17 -12 -42 -49 -42 -62 0
-3 7 -2 17 1 12 5 14 3 8 -8 -8 -12 -6 -12 8 0 16 13 16 14 0 26 -15 11 -15
13 5 24 18 10 22 9 22 -4 0 -8 7 -15 16 -15 8 0 12 5 9 10 -3 6 -2 10 4 10 12
0 24 -37 16 -50 -3 -5 -2 -10 3 -10 20 0 21 -31 2 -50 -16 -16 -17 -20 -5 -20
12 0 14 -7 10 -27 -6 -26 -5 -26 8 -10 8 9 17 17 21 17 13 0 5 -34 -11 -53
-17 -19 -17 -20 5 -15 24 7 27 1 13 -21 -8 -12 -12 -13 -26 -1 -12 10 -19 10
-27 2 -8 -8 -7 -13 5 -18 9 -3 14 -10 11 -15 -3 -5 -1 -9 5 -9 5 0 11 4 13 9
2 5 16 13 32 17 28 7 29 6 22 -20 -4 -17 -3 -25 3 -22 13 8 23 -24 12 -38 -11
-13 0 -38 15 -35 14 3 44 -12 44 -23 0 -6 -6 -6 -14 1 -9 8 -16 8 -20 2 -4 -5
3 -13 14 -16 16 -5 18 -10 11 -19 -6 -7 -8 -16 -4 -19 3 -4 0 -7 -8 -7 -20 0
-79 -75 -79 -99 0 -27 27 -27 35 -1 3 11 11 20 16 20 13 0 11 -44 -3 -58 -9
-9 -8 -12 5 -12 13 0 17 9 17 34 0 19 5 38 11 42 8 5 8 9 -1 14 -17 10 -3 30
21 30 11 0 19 -7 20 -17 0 -10 3 -30 5 -45 3 -16 0 -28 -6 -28 -5 0 -10 5 -10
10 0 6 -5 10 -11 10 -7 0 -9 -9 -6 -22 5 -16 -3 -30 -31 -55 l-37 -33 34 12
c25 8 35 8 41 -2 5 -9 9 -9 14 -1 4 6 14 11 23 11 14 0 14 -3 -2 -20 -14 -15
-21 -17 -32 -9 -7 7 -17 8 -21 4 -4 -4 -2 -10 5 -12 10 -4 10 -7 0 -17 -6 -8
-16 -13 -22 -11 -5 1 -7 0 -3 -2 5 -3 5 -16 2 -29 -9 -34 11 -30 26 5 9 24 18
29 45 29 l32 0 -14 -29 c-16 -33 -38 -40 -28 -9 4 11 2 20 -4 20 -6 0 -11 -8
-11 -18 0 -10 -6 -24 -12 -31 -11 -11 -10 -13 5 -8 22 8 22 1 -3 -30 -21 -26
-27 -48 -11 -39 12 8 20 -39 9 -57 -11 -21 -47 -10 -53 17 -3 11 -14 62 -25
111 -34 159 -47 208 -74 285 -15 41 -33 95 -41 120 -8 25 -28 73 -45 108 -16
34 -30 66 -30 71 0 5 -21 52 -46 106 -43 90 -52 133 -19 89 8 -10 15 -14 15
-8 0 14 46 64 59 64 5 0 11 -6 14 -12z m-2315 -954 c186 -38 298 -87 548 -240
248 -151 255 -155 334 -187 106 -42 162 -56 261 -63 183 -14 357 44 594 198
55 36 116 69 135 74 54 13 111 4 158 -23 42 -25 74 -63 52 -63 -6 0 -8 -5 -5
-10 4 -6 10 -8 15 -5 4 3 6 -4 3 -15 -3 -11 -12 -20 -19 -20 -8 0 -14 -5 -14
-11 0 -5 4 -8 9 -4 5 3 12 1 16 -4 3 -6 -17 -22 -44 -36 -53 -26 -81 -32 -81
-15 0 6 12 10 26 10 16 0 23 4 18 12 -4 6 1 17 11 24 10 8 20 28 22 45 3 28 1
30 -14 18 -15 -13 -16 -11 -10 12 5 20 3 29 -9 33 -14 5 -16 1 -12 -31 5 -35
2 -40 -30 -61 -25 -16 -33 -18 -29 -7 9 23 -3 18 -30 -11 -19 -21 -22 -29 -11
-35 8 -5 9 -9 2 -9 -19 0 -94 -81 -87 -94 3 -6 3 -8 -2 -4 -10 10 -65 -30 -65
-46 0 -8 -8 -20 -17 -27 -15 -12 -16 -12 -10 4 9 25 -12 21 -34 -7 -22 -28
-72 -51 -94 -42 -21 8 -19 26 3 26 10 0 29 12 43 26 l24 27 -28 -18 c-15 -10
-30 -15 -34 -11 -3 3 -1 6 5 6 7 0 12 7 12 15 0 8 5 16 10 16 37 5 70 20 65
30 -4 5 -21 3 -41 -6 -19 -8 -41 -12 -50 -8 -8 3 -23 -2 -34 -12 -10 -9 -23
-14 -29 -11 -8 5 -71 -48 -71 -60 0 -12 27 0 61 27 30 24 39 27 39 14 0 -9 5
-13 10 -10 6 3 10 2 10 -4 0 -19 -115 -111 -135 -109 -26 4 -91 -52 -73 -63 8
-5 1 -10 -18 -15 -16 -4 -41 -13 -56 -21 -16 -7 -28 -10 -28 -5 0 5 17 17 38
26 20 9 42 28 49 41 6 14 7 23 2 19 -5 -3 -9 5 -9 16 0 16 4 20 16 16 15 -6
74 30 74 46 0 15 -33 8 -46 -9 -7 -10 -16 -14 -21 -10 -10 11 38 48 55 42 6
-2 12 0 12 5 0 6 -5 10 -11 10 -5 0 -7 6 -3 13 4 6 -2 4 -13 -5 -24 -22 -53
-23 -53 -3 0 8 7 15 15 15 8 0 15 5 15 10 0 22 -21 8 -46 -31 -20 -32 -28 -39
-35 -28 -8 13 -13 6 -10 -13 0 -4 -14 -12 -32 -17 l-32 -9 28 -1 c34 -1 27
-21 -7 -21 -13 0 -29 -7 -36 -15 -32 -38 -41 -2 -10 38 27 34 25 45 -2 20 -13
-12 -41 -23 -63 -26 -22 -3 -41 -10 -43 -16 -2 -6 -8 -11 -13 -11 -6 0 -7 6
-3 13 4 6 -2 4 -14 -7 -31 -27 -16 -40 19 -16 16 12 29 17 29 11 0 -15 -59
-53 -71 -45 -6 3 -16 0 -21 -7 -6 -10 -7 -6 -2 11 5 14 8 36 7 49 -1 18 1 20
8 10 8 -12 10 -12 18 0 5 8 16 11 25 8 8 -3 18 -2 21 3 9 15 -5 31 -18 23 -16
-10 -47 -11 -47 -2 0 5 -7 5 -17 2 -11 -4 -14 -3 -9 5 4 7 18 10 31 8 17 -3
22 -1 19 9 -12 31 -53 20 -67 -17 -3 -10 -11 -18 -17 -18 -14 0 -13 13 2 28 8
8 9 12 1 12 -6 0 -13 -6 -16 -12 -3 -10 -8 -10 -17 -2 -9 9 -5 14 18 22 21 7
31 18 34 39 3 15 9 36 13 46 4 9 3 17 -3 17 -5 0 -12 -12 -15 -27 -3 -16 -13
-37 -21 -48 -15 -20 -15 -20 -16 0 0 11 7 31 16 44 12 17 14 25 5 34 -9 9 -14
8 -21 -3 -5 -8 -6 -18 -3 -24 3 -5 1 -6 -5 -2 -7 4 -12 3 -12 -3 0 -20 -62
-81 -84 -82 -15 -1 -16 -3 -4 -6 35 -9 26 -28 -14 -26 -22 0 -41 3 -44 6 -7 7
7 37 18 37 5 0 6 -5 2 -12 -4 -7 -3 -8 4 -4 21 13 14 43 -9 42 -12 -1 -24 5
-27 13 -3 9 1 11 15 7 14 -5 19 -1 20 15 2 24 32 50 51 44 18 -6 27 24 13 38
-10 9 -16 7 -30 -10 -14 -16 -21 -19 -30 -10 -8 8 -11 5 -11 -14 0 -25 -30
-59 -53 -59 -7 0 -18 -5 -25 -12 -9 -9 -12 -9 -13 3 -1 7 -1 17 0 22 1 9 -11
9 -28 -2 -9 -6 -10 -11 -2 -15 17 -11 13 -24 -9 -31 -12 -4 -19 -14 -17 -27 1
-11 -4 -23 -12 -26 -11 -4 -13 2 -8 26 3 17 3 32 -1 35 -4 2 -1 2 6 1 6 -2 12
0 12 5 0 16 -13 20 -31 10 -15 -7 -19 -6 -19 5 0 8 8 17 19 21 12 4 18 14 17
34 -1 23 -5 28 -23 26 -22 -2 -73 -31 -73 -40 0 -3 10 1 23 10 29 18 41 9 23
-17 -8 -11 -11 -29 -8 -40 3 -14 1 -19 -6 -14 -7 4 -12 13 -12 21 0 21 -23 23
-44 3 -47 -43 -49 -6 -2 42 18 20 35 44 37 55 3 12 14 21 28 23 18 3 21 6 11
12 -13 8 -39 -1 -64 -21 -65 -53 -160 -99 -118 -57 15 15 16 48 0 48 -6 0 -20
-7 -30 -17 -16 -14 -18 -14 -18 -1 0 9 6 20 13 26 15 12 58 12 51 0 -3 -4 -1
-8 5 -8 5 0 13 5 16 10 4 6 15 8 25 5 10 -3 21 -2 24 4 3 5 -8 8 -25 7 -16 -1
-32 1 -35 5 -6 10 -74 -10 -91 -27 -8 -8 -24 -14 -35 -14 -21 0 -21 0 2 25 13
14 38 28 57 31 47 9 41 24 -8 19 -23 -2 -50 1 -60 8 -15 9 -22 8 -36 -6 -17
-17 -17 -18 0 -11 20 7 21 1 5 -26 -11 -18 -14 -18 -40 -2 -31 18 -35 30 -13
38 8 4 15 10 15 16 0 5 -14 0 -31 -12 -35 -26 -46 -21 -28 12 7 12 13 28 14
33 0 6 9 10 20 10 11 0 21 8 23 18 4 19 -13 23 -23 7 -5 -8 -11 -8 -20 0 -10
8 -15 6 -20 -9 -3 -12 -15 -25 -25 -31 -12 -6 -16 -17 -13 -30 4 -13 0 -20 -9
-20 -36 0 -42 41 -10 66 8 6 12 16 8 23 -6 9 -11 9 -23 0 -12 -10 -17 -10 -25
2 -8 11 -9 10 -4 -5 9 -28 -20 -57 -47 -47 -12 5 -28 6 -34 4 -17 -6 -16 -3 3
35 8 17 17 46 18 64 2 18 1 25 -1 15 -8 -30 -46 -42 -76 -23 -23 16 -25 16
-31 -1 -3 -10 -12 -28 -20 -41 -12 -21 -15 -22 -27 -9 -12 12 -15 12 -24 0 -7
-9 -21 -13 -36 -11 l-24 4 28 12 c15 6 27 14 27 17 0 12 -50 3 -65 -12 -10 -9
-30 -18 -47 -20 -16 -2 -38 -7 -48 -13 -24 -13 -35 3 -15 20 8 7 15 18 15 26
0 14 -38 30 -47 20 -4 -3 2 -6 12 -6 16 0 17 -2 3 -17 -8 -10 -18 -27 -22 -38
-7 -19 -8 -19 -20 -3 -12 16 -14 16 -25 -8 -7 -16 -18 -24 -30 -22 -10 2 -24
-2 -32 -9 -8 -6 -32 -14 -53 -19 l-39 -7 6 34 6 34 -15 -28 c-11 -21 -20 -26
-35 -22 -13 5 -19 2 -19 -10 0 -9 4 -14 9 -10 5 3 12 1 16 -5 9 -15 -21 -23
-43 -11 -15 8 -23 7 -32 -4 -9 -11 -9 -15 -1 -15 6 0 11 -4 11 -10 0 -13 -62
-3 -71 12 -5 7 -7 19 -4 26 4 12 -7 17 -18 6 -10 -11 14 -63 28 -58 7 3 16 1
20 -5 13 -22 -29 -24 -69 -3 -50 27 -52 27 -59 2 -4 -17 -2 -20 14 -15 22 7
59 -2 59 -15 0 -6 -11 -12 -25 -16 -14 -3 -25 -12 -25 -19 0 -7 -7 -16 -16
-19 -13 -5 -15 -1 -12 25 5 29 4 30 -8 14 -13 -17 -29 -22 -77 -24 -13 -1 -17
-6 -12 -20 6 -21 -17 -35 -46 -26 -12 4 -19 -1 -24 -15 -3 -11 -12 -20 -18
-20 -7 0 -18 -9 -25 -20 -7 -11 -20 -20 -29 -20 -9 0 -25 -8 -35 -17 -14 -12
-21 -14 -30 -5 -16 16 5 38 49 53 25 8 32 14 24 22 -15 15 -14 37 2 37 6 0 23
16 36 35 13 19 32 37 42 40 10 4 19 11 19 16 0 17 -20 9 -48 -21 -41 -42 -159
-96 -182 -82 -10 6 -22 7 -31 1 -10 -6 -10 -9 -1 -9 19 0 14 -18 -8 -25 -11
-4 -18 -10 -15 -14 8 -13 56 -4 84 17 33 24 71 34 65 17 -8 -21 -62 -55 -77
-49 -8 3 -18 1 -22 -5 -3 -7 2 -11 14 -11 12 0 21 -4 21 -9 0 -15 -32 -22 -45
-11 -15 12 -65 3 -65 -12 0 -13 -69 -40 -83 -31 -6 4 -18 8 -27 9 -8 1 -23 5
-32 9 -11 4 -18 3 -18 -5 0 -6 -8 -10 -17 -9 -33 3 -42 -1 -37 -16 4 -8 2 -15
-4 -15 -6 0 -12 5 -14 11 -8 23 -80 -3 -119 -42 -22 -22 -46 -39 -54 -39 -24
0 -17 13 18 38 26 18 28 22 12 22 -11 0 -27 -4 -35 -9 -28 -19 -32 2 -4 25 22
17 25 23 12 24 -9 0 -23 -7 -32 -15 -9 -9 -17 -11 -21 -5 -3 5 -23 9 -43 9
-30 -2 -32 -3 -9 -6 15 -2 27 -11 27 -19 0 -8 -2 -14 -4 -14 -16 0 -74 32 -88
49 -14 17 -25 19 -70 14 -51 -5 -54 -4 -66 21 -14 31 -33 34 -29 4 1 -16 -5
-23 -28 -29 -16 -5 -33 -5 -38 0 -5 5 4 12 22 16 17 4 31 10 31 15 0 12 -54
20 -64 9 -18 -16 -48 -10 -67 15 -11 14 -29 26 -41 28 -28 4 -36 28 -9 28 24
0 36 16 20 26 -8 5 -9 3 -4 -6 5 -8 4 -11 -3 -6 -15 9 -4 36 16 36 8 0 13 3
10 6 -3 3 -21 1 -39 -4 -25 -6 -33 -14 -31 -26 2 -12 -2 -17 -15 -14 -10 2
-18 10 -18 18 0 10 -9 14 -28 12 -15 -1 -27 1 -27 7 0 13 30 24 64 25 16 1 31
7 34 15 3 10 -3 12 -29 7 l-34 -7 24 21 c28 24 22 37 -8 20 -12 -6 -21 -19
-21 -30 0 -14 -7 -18 -28 -18 -15 1 -37 -2 -50 -6 -16 -6 -22 -3 -22 8 0 9 -6
16 -14 16 -8 0 -27 11 -43 24 -16 13 -40 26 -53 28 -30 4 -33 30 -4 38 l21 5
-22 23 -21 23 -27 -21 c-27 -21 -91 -25 -83 -5 2 6 -11 10 -35 8 -29 -1 -42 3
-53 18 -11 16 -18 19 -33 11 -13 -7 -25 -7 -38 1 -11 6 -37 10 -59 8 -23 -2
-36 1 -32 7 3 5 -1 12 -9 16 -8 3 -17 2 -19 -3 -8 -12 -109 -6 -139 9 -15 7
-30 10 -35 5 -4 -4 -1 -10 6 -12 6 -3 12 -9 12 -14 0 -4 -7 -6 -15 -2 -9 3
-24 -2 -34 -11 -10 -9 -20 -14 -23 -11 -3 3 -17 8 -32 11 -19 3 -24 1 -20 -10
3 -7 -3 -16 -12 -20 -23 -9 -28 -2 -13 23 17 26 3 41 -15 16 -7 -10 -24 -19
-37 -20 -17 -1 -23 -7 -21 -20 3 -13 -1 -16 -14 -11 -10 4 -20 2 -24 -4 -5 -8
-15 -8 -34 0 -25 9 -27 8 -21 -11 6 -18 4 -20 -15 -14 -14 4 -28 1 -41 -11
-13 -12 -19 -13 -19 -4 0 8 -8 10 -22 7 -12 -4 -28 -1 -35 4 -7 6 -18 9 -25 7
-7 -3 6 -16 30 -29 23 -13 42 -27 42 -31 0 -12 -38 -9 -45 2 -4 6 -16 10 -27
8 -14 -2 -22 3 -24 15 -1 11 -6 22 -10 25 -4 4 -4 -10 -1 -30 4 -29 2 -40 -11
-47 -9 -5 -17 -17 -17 -27 0 -9 -6 -19 -12 -21 -7 -3 -13 2 -13 11 0 10 -6 13
-15 10 -8 -4 -15 -12 -15 -20 0 -8 -5 -14 -11 -14 -5 0 -7 -4 -4 -10 3 -5 2
-10 -4 -10 -5 0 -12 4 -15 9 -4 5 -23 8 -43 6 -45 -3 -63 3 -63 20 0 12 -29
30 -36 22 -6 -6 36 -47 47 -47 6 0 8 -4 4 -10 -3 -5 -12 -7 -20 -3 -9 3 -22
-1 -31 -8 -12 -10 -18 -9 -32 4 -15 16 -14 17 11 17 15 0 27 5 27 11 0 7 -11
9 -27 6 -18 -3 -31 0 -40 11 -11 15 -12 15 -13 -5 0 -13 5 -23 10 -23 6 0 10
-9 10 -20 0 -10 9 -24 21 -31 13 -7 18 -14 12 -20 -14 -14 -43 0 -43 20 0 24
-50 75 -62 63 -7 -7 -3 -20 11 -40 22 -31 27 -52 13 -52 -10 0 -42 38 -42 49
0 6 -9 13 -20 16 -22 7 -26 21 -8 27 7 3 5 7 -6 11 -9 4 -15 3 -12 -2 3 -5 -1
-11 -9 -15 -8 -3 -19 3 -24 12 -8 12 -10 13 -11 3 0 -8 -3 -12 -6 -8 -3 3 -3
11 2 18 4 7 8 25 9 40 5 56 32 79 245 212 284 175 452 249 653 288 95 18 136
20 267 16 148 -5 161 -7 275 -45 135 -45 233 -96 450 -234 83 -53 175 -108
205 -123 69 -35 176 -75 183 -69 2 3 26 -3 53 -12 39 -13 73 -15 164 -11 205
9 307 48 600 228 176 108 267 154 395 201 205 74 409 92 603 52z m2662 -24 c0
-4 -9 -15 -20 -25 -11 -10 -20 -24 -20 -31 0 -7 -12 -21 -26 -31 -24 -18 -25
-20 -8 -34 11 -8 15 -9 10 -1 -4 7 -2 12 8 12 24 0 27 -15 6 -33 -12 -10 -17
-23 -13 -33 5 -14 2 -16 -18 -11 -13 4 -27 7 -30 7 -3 0 -9 24 -12 53 -6 54
-15 105 -21 122 -2 6 10 11 26 11 17 1 34 7 40 15 6 10 7 4 3 -18 -7 -37 4
-42 29 -14 13 15 14 20 4 24 -10 4 -10 8 2 16 11 8 18 6 28 -6 6 -9 12 -20 12
-23z m43 -80 c7 -1 6 -6 -4 -13 -9 -7 -21 -22 -28 -34 -10 -21 -9 -23 11 -23
l22 0 -23 -16 c-16 -12 -20 -19 -12 -27 23 -23 4 -32 -27 -13 -21 13 -44 -17
-47 -58 -2 -43 2 -44 32 -8 l22 27 -5 -27 c-5 -30 4 -36 24 -16 15 15 16 32 2
23 -5 -3 -10 -4 -10 0 0 8 52 27 58 21 11 -11 -50 -76 -71 -76 -15 0 -18 -3
-10 -11 8 -8 17 -7 34 5 35 24 57 21 34 -4 -10 -11 -28 -20 -40 -20 -27 0 -36
-19 -40 -78 -2 -27 0 -40 7 -36 6 4 8 -2 3 -16 -4 -13 -3 -20 2 -17 5 3 9 -3
9 -14 0 -13 -5 -18 -14 -14 -11 4 -13 -1 -9 -17 4 -12 1 -28 -5 -35 -8 -10 -6
-13 8 -14 11 0 14 -3 7 -6 -13 -5 -19 -33 -7 -33 3 0 14 5 24 10 18 10 19 26
4 64 -5 14 -4 17 4 12 7 -4 12 -14 12 -22 0 -8 5 -12 10 -9 16 10 12 45 -6 45
-13 0 -15 7 -9 38 5 20 8 48 9 61 1 28 23 40 32 17 3 -9 13 -16 21 -16 12 0
12 -2 1 -13 -7 -8 -20 -16 -28 -20 -12 -4 -11 -6 3 -6 24 -1 22 -21 -3 -21
-11 0 -20 -7 -20 -15 0 -8 8 -15 19 -15 16 0 17 -5 11 -37 -12 -61 -59 -152
-75 -146 -6 2 -16 -15 -22 -37 -5 -22 -7 -40 -3 -40 7 0 31 29 50 60 14 22 18
9 8 -28 -6 -22 -21 -40 -43 -54 -33 -19 -40 -46 -9 -34 8 3 19 -4 25 -15 13
-26 31 -12 35 27 3 30 49 83 61 70 4 -4 -7 -21 -25 -37 -18 -17 -30 -35 -27
-40 7 -11 -3 -49 -13 -48 -22 4 -33 -3 -29 -16 4 -8 2 -17 -3 -20 -5 -3 -7
-12 -3 -20 3 -10 -1 -15 -13 -15 -24 0 -48 -48 -33 -66 7 -9 6 -19 -5 -37 -15
-23 -13 -37 6 -37 5 0 6 5 3 10 -3 6 1 10 9 10 20 0 21 -24 1 -40 -14 -12 -14
-15 1 -31 21 -24 12 -36 -10 -14 -9 9 -21 13 -27 10 -7 -5 -7 -11 -1 -17 6 -6
3 -28 -9 -61 -23 -63 -23 -59 -1 -55 9 1 18 -1 20 -5 6 -19 0 -27 -23 -27 -22
0 -24 -4 -20 -23 4 -15 1 -28 -9 -36 -20 -17 -21 -51 -1 -51 20 0 19 -19 -1
-27 -18 -7 -36 -45 -40 -85 -3 -32 12 -38 21 -8 8 25 53 80 66 80 17 0 9 -29
-9 -34 -22 -7 -37 -34 -55 -95 -13 -47 -37 -67 -37 -32 0 12 5 21 12 21 6 0 9
2 6 5 -12 12 -38 -8 -33 -25 3 -10 1 -21 -5 -25 -18 -11 -11 -35 10 -35 18 0
19 -3 10 -21 -7 -11 -18 -18 -25 -15 -9 3 -12 0 -9 -9 3 -8 12 -11 20 -8 8 3
21 -3 29 -13 19 -25 19 -35 0 -28 -9 4 -15 0 -15 -10 0 -9 -6 -17 -12 -17 -7
-1 -17 -2 -23 -4 -5 -1 -16 -3 -22 -3 -7 -1 -13 -9 -13 -18 0 -10 -6 -14 -15
-11 -8 4 -17 2 -20 -3 -4 -6 2 -10 11 -10 14 0 13 -3 -5 -19 -16 -14 -21 -26
-16 -40 8 -26 28 -27 46 -3 11 14 11 15 -1 5 -8 -7 -18 -13 -22 -13 -17 0 -7
27 20 50 16 14 31 30 33 37 4 12 26 16 72 14 16 -1 26 -5 22 -11 -3 -6 -17 -7
-29 -4 -19 4 -29 -2 -50 -29 -15 -19 -26 -39 -25 -43 6 -24 -17 -44 -62 -55
-33 -9 -46 -16 -39 -23 15 -15 12 -23 -12 -31 -20 -6 -21 -8 -5 -12 13 -3 16
-10 12 -21 -4 -10 -9 -22 -12 -28 -2 -7 10 -17 28 -23 30 -10 31 -12 15 -24
-10 -7 -16 -19 -14 -26 2 -7 -3 -16 -11 -19 -10 -3 -12 2 -7 21 4 17 1 27 -9
31 -22 8 -86 -33 -83 -53 1 -9 -1 -22 -5 -28 -6 -9 -3 -11 8 -7 9 4 14 13 11
21 -4 11 -1 13 14 8 14 -5 20 -2 20 9 0 9 7 16 15 16 8 0 15 -7 15 -15 0 -8
-6 -15 -13 -15 -8 0 -24 -11 -37 -25 -13 -14 -30 -25 -38 -25 -8 0 -12 -6 -9
-14 4 -9 -2 -17 -14 -21 -29 -10 -23 -26 8 -19 23 6 25 5 18 -12 -4 -10 -10
-29 -13 -42 -5 -24 -26 -25 -28 -1 -3 41 -3 42 -19 29 -9 -7 -12 -16 -8 -19
13 -10 14 -31 1 -29 -7 2 -12 -3 -10 -9 1 -7 -3 -13 -9 -13 -5 0 -7 -4 -4 -10
3 -5 0 -10 -7 -10 -8 0 -15 -13 -16 -32 -3 -41 -20 -85 -36 -91 -6 -3 -12 3
-12 13 0 10 3 17 7 14 4 -2 13 3 20 12 11 13 9 15 -17 11 -23 -3 -28 -9 -27
-26 2 -12 -1 -20 -6 -16 -5 3 -12 1 -16 -5 -3 -5 -1 -10 5 -10 6 0 8 -5 5 -10
-4 -6 -12 -7 -18 -3 -7 4 -6 0 2 -10 12 -15 11 -17 -8 -17 -16 0 -21 -6 -22
-27 0 -16 -3 -22 -6 -15 -10 25 -34 13 -31 -15 4 -34 22 -55 41 -47 8 3 18 1
22 -5 3 -6 -2 -11 -13 -11 -10 0 -22 -3 -26 -7 -4 -5 -22 -8 -41 -8 -24 0 -31
3 -28 15 3 10 1 9 -7 -3 -14 -21 -5 -37 21 -37 20 0 49 -21 49 -36 0 -5 -6 -2
-12 4 -10 10 -16 8 -28 -8 -9 -12 -27 -22 -41 -24 -40 -4 -49 -14 -44 -51 5
-38 -2 -42 -73 -44 -49 -1 -62 -6 -62 -26 0 -21 30 -26 53 -10 31 22 43 19 57
-14 15 -37 6 -55 -20 -39 -15 10 -22 9 -38 -5 -22 -20 -33 -22 -30 -5 2 7 -8
14 -21 16 -16 3 -21 0 -16 -8 9 -15 -33 -60 -51 -53 -18 7 -30 -25 -16 -39 9
-9 17 -7 31 6 22 20 29 13 29 -26 0 -24 -4 -27 -39 -26 -21 0 -36 4 -33 9 9
15 -9 10 -40 -10 -22 -15 -32 -16 -41 -8 -7 7 -10 16 -7 21 3 5 0 6 -6 2 -9
-5 -8 -12 1 -27 10 -17 9 -22 -7 -34 -18 -14 -18 -15 5 -24 20 -8 21 -10 7
-16 -9 -4 -20 -20 -23 -36 -7 -31 -22 -38 -31 -14 -5 11 -10 13 -19 5 -8 -7
-15 -7 -19 -1 -10 16 5 41 25 41 21 0 25 15 8 26 -6 3 -25 -8 -42 -25 -18 -17
-26 -31 -19 -31 7 0 11 -4 8 -8 -3 -5 -19 -7 -36 -6 -26 2 -29 0 -19 -12 7 -8
20 -12 30 -9 22 7 26 -10 4 -19 -8 -3 -12 -12 -9 -21 4 -11 2 -14 -9 -9 -9 3
-24 1 -35 -5 -15 -8 -22 -8 -25 2 -3 9 -9 9 -26 0 -11 -7 -28 -13 -36 -13 -8
0 -15 -5 -15 -11 0 -6 -12 -24 -27 -40 -22 -22 -37 -29 -68 -30 l-40 0 35 -17
c19 -9 37 -17 38 -18 2 -2 1 -12 -3 -23 -3 -12 -11 -18 -17 -15 -5 3 -29 8
-53 11 -41 4 -45 2 -60 -26 -8 -17 -20 -31 -26 -31 -6 0 -7 5 -4 10 4 6 -5 5
-19 -2 -35 -15 -26 -21 30 -20 29 1 55 8 68 19 16 14 18 14 8 2 -10 -14 -9
-17 8 -22 11 -3 20 -10 20 -17 0 -7 -25 -10 -80 -8 -44 2 -80 0 -80 -4 0 -4
10 -14 22 -22 27 -19 24 -22 -32 -30 -44 -6 -91 9 -62 21 6 2 10 9 7 14 -4 5
-12 3 -19 -4 -8 -6 -12 -16 -9 -21 9 -13 -20 -26 -44 -19 -13 3 -23 1 -23 -5
0 -14 50 -21 78 -11 29 11 42 4 42 -23 0 -16 -5 -19 -21 -15 -15 4 -23 0 -26
-14 -3 -10 -9 -16 -15 -13 -5 3 -4 12 3 20 6 8 10 16 8 18 -8 8 -75 8 -93 1
-10 -5 -26 -4 -34 1 -10 7 -26 5 -48 -5 -27 -12 -32 -19 -28 -38 5 -17 2 -23
-9 -23 -9 0 -19 5 -23 11 -4 8 -9 8 -17 0 -7 -7 -14 -7 -24 1 -7 6 -17 8 -21
4 -9 -9 28 -37 39 -30 5 3 9 0 9 -5 0 -6 -5 -11 -12 -11 -6 0 -2 -9 10 -20 12
-11 26 -20 32 -20 21 0 9 -18 -15 -22 -19 -4 -25 -1 -25 13 0 30 -28 22 -46
-14 -11 -20 -19 -27 -22 -18 -2 7 2 17 9 22 24 15 -1 23 -34 11 -32 -11 -77
-7 -77 8 0 5 12 18 28 29 16 12 21 20 13 21 -18 0 -61 -39 -61 -56 0 -19 -19
-27 -35 -14 -10 9 -21 8 -44 -5 -31 -16 -43 -32 -17 -22 23 9 26 -4 6 -25 -18
-20 -21 -20 -44 -4 -34 22 -43 20 -21 -4 20 -22 18 -29 -13 -35 -11 -2 -30 -9
-42 -15 -27 -15 -37 -6 -19 17 7 10 1 7 -14 -6 -21 -19 -30 -22 -39 -13 -7 7
-27 12 -46 12 -30 0 -32 -2 -18 -15 8 -8 29 -15 46 -15 29 0 32 -3 26 -22 -3
-13 -6 -30 -6 -39 0 -9 -11 -21 -25 -27 -29 -13 -32 -6 -8 20 16 18 15 19 -28
12 -24 -3 -49 -13 -55 -20 -15 -19 -25 -18 -18 1 4 8 1 22 -6 30 -8 9 -8 15
-2 15 6 0 12 -5 14 -11 3 -9 14 -9 41 1 38 12 45 32 13 38 -9 2 -25 0 -34 -4
-9 -4 -24 -8 -32 -8 -8 -1 -20 -12 -26 -25 -15 -30 -53 -52 -77 -45 -10 3 -24
0 -32 -6 -11 -9 -15 -9 -15 -1 0 19 -18 12 -25 -9 -7 -22 -13 -24 -35 -10 -12
8 -11 13 8 33 23 24 23 24 2 30 -21 5 -41 -18 -33 -40 2 -6 0 -14 -6 -17 -5
-4 -13 3 -16 15 -6 19 -8 19 -19 3 -8 -10 -20 -15 -28 -11 -9 3 -25 -1 -36 -9
-11 -8 -41 -16 -66 -19 -45 -4 -45 -4 -26 15 11 11 20 26 19 33 0 9 -2 9 -6
-1 -2 -6 -10 -9 -16 -5 -7 4 -8 0 -4 -11 5 -14 3 -17 -8 -12 -8 3 -15 1 -15
-4 0 -5 -7 -7 -15 -3 -9 3 -22 -2 -30 -13 -12 -16 -16 -17 -24 -5 -8 12 -12
12 -25 2 -8 -7 -21 -9 -27 -5 -8 4 -9 3 -5 -4 4 -7 2 -12 -3 -12 -6 0 -11 5
-11 10 0 6 -5 10 -12 10 -8 0 -6 -6 4 -17 18 -18 110 -22 116 -5 3 10 130 7
140 -3 9 -9 -19 -24 -34 -18 -6 2 -15 0 -19 -6 -3 -6 -17 -11 -31 -11 -13 0
-24 -4 -24 -10 0 -5 -7 -10 -16 -10 -8 0 -13 4 -10 9 6 10 -43 25 -52 16 -3
-3 2 -5 11 -5 10 0 17 -4 17 -10 0 -14 -39 -32 -56 -26 -19 7 -18 26 1 26 8 0
15 5 15 10 0 12 -6 12 -38 4 -14 -4 -21 -12 -18 -20 6 -17 -15 -19 -31 -3 -9
9 -21 6 -47 -11 -20 -12 -36 -19 -36 -17 0 3 -13 2 -30 -3 -36 -10 -46 1 -20
25 16 15 17 19 5 31 -18 18 -39 18 -55 -1 -7 -8 -19 -15 -27 -15 -8 0 -11 -4
-8 -10 3 -5 19 -7 35 -3 32 6 40 -7 16 -26 -14 -12 -63 -10 -84 3 -7 4 -16 5
-21 1 -5 -3 -30 8 -56 24 -41 26 -52 29 -103 24 -31 -3 -65 -6 -74 -7 -12 0
-14 -4 -7 -13 8 -9 16 -9 35 -1 20 10 27 9 34 -2 7 -11 12 -12 21 -3 9 9 20 8
45 -5 19 -8 34 -19 34 -23 0 -5 -43 -7 -96 -5 -92 2 -96 3 -119 32 -13 16 -24
24 -25 17 0 -6 5 -15 10 -18 18 -11 11 -25 -12 -24 -13 0 -35 -3 -50 -7 -40
-9 -36 13 5 24 28 8 29 11 13 17 -13 6 -30 3 -48 -8 -30 -17 -128 -24 -128 -9
0 4 6 14 13 21 8 10 8 12 0 7 -6 -3 -14 -2 -18 4 -3 5 -11 10 -18 10 -6 0 -3
-6 8 -13 17 -13 17 -14 -4 -20 -11 -3 -21 -1 -21 4 0 13 -28 11 -32 -2 -3 -8
-10 -6 -21 5 -9 10 -17 13 -17 7 0 -6 -12 -11 -27 -11 l-28 1 24 19 c13 11 17
20 10 20 -10 0 -10 3 -1 12 18 18 14 30 -5 20 -10 -5 -31 -8 -48 -7 -28 3 -28
2 -7 -7 12 -6 22 -17 22 -23 0 -17 -91 -27 -109 -12 -8 7 -25 10 -38 9 -14 -2
-32 3 -41 11 -9 7 -37 15 -62 16 -54 2 -80 9 -80 22 0 5 8 9 18 9 10 0 27 6
37 14 16 12 12 13 -38 12 -39 0 -57 -4 -57 -13 0 -21 -27 -15 -48 12 -24 31
-32 32 -25 4 5 -17 2 -20 -13 -17 -12 2 -19 12 -20 26 -2 27 -10 37 -19 23 -3
-6 0 -11 7 -11 10 0 10 -2 0 -9 -16 -9 -92 7 -92 20 0 4 -8 8 -17 8 -33 1 -83
13 -89 22 -3 5 2 6 10 3 9 -4 16 -1 16 6 0 7 6 10 13 7 6 -2 23 -7 37 -11 l25
-7 -28 25 c-33 30 -111 39 -101 11 4 -8 2 -15 -3 -15 -21 0 -73 22 -73 31 0 5
-13 9 -28 9 -32 0 -92 27 -92 41 0 5 5 9 10 9 6 0 10 5 10 12 0 8 -3 9 -10 2
-11 -11 -93 3 -140 24 -22 9 -23 11 -5 13 11 1 23 1 28 0 4 0 7 3 7 9 0 5 -13
7 -30 4 -17 -4 -36 -1 -44 5 -7 6 -21 9 -30 5 -26 -10 -19 21 9 36 26 14 50 5
26 -9 -9 -6 -7 -10 8 -14 12 -3 21 -1 21 4 0 5 7 9 15 9 8 0 15 7 15 15 0 18
-17 20 -23 3 -2 -7 -3 6 -2 30 l2 43 -36 -3 c-29 -2 -39 -9 -51 -35 -8 -18
-20 -34 -27 -37 -12 -5 -46 40 -46 61 0 12 -53 20 -82 13 -29 -7 -40 -3 -41
15 -1 11 -2 26 -3 33 -1 7 -6 10 -11 7 -6 -4 -8 -10 -5 -15 3 -5 1 -11 -5 -15
-5 -3 -10 -2 -10 3 0 5 -10 13 -22 17 -20 6 -20 8 -5 12 30 8 19 18 -21 19
-21 1 -49 7 -63 15 l-24 14 23 3 c13 2 29 -1 37 -8 10 -8 15 -8 19 2 5 10 7
10 12 1 9 -21 26 -15 19 7 -7 23 3 26 19 6 9 -13 14 -11 29 10 24 33 4 40 -49
18 -49 -21 -140 -25 -155 -7 -19 22 -2 46 27 39 22 -6 25 -4 20 9 -5 13 -1 15
15 10 20 -7 20 -7 2 21 -14 22 -19 25 -21 11 -2 -9 -8 -17 -14 -17 -5 0 -23
-9 -39 -21 -16 -11 -37 -18 -45 -15 -20 8 -8 26 17 26 10 0 19 5 19 10 0 7
-18 8 -49 4 -34 -4 -51 -3 -56 6 -5 9 -4 11 3 6 7 -4 12 -3 12 2 0 12 70 8 96
-6 16 -8 22 -7 31 7 11 17 6 19 -67 25 -46 4 -83 13 -90 21 -6 7 -20 11 -30 8
-14 -4 -20 0 -20 11 0 9 4 16 9 16 5 0 11 7 14 14 4 10 1 13 -9 9 -8 -3 -14 1
-14 11 0 16 -11 20 -39 16 -13 -1 -13 1 -2 14 11 14 11 16 -4 16 -12 0 -16 -6
-12 -20 6 -23 -7 -25 -48 -10 -31 12 -24 33 8 25 21 -5 21 -5 2 6 -11 6 -29
25 -40 42 -16 25 -28 32 -60 34 -55 5 -66 10 -59 28 4 10 0 15 -15 15 -26 0
-26 8 -1 38 18 22 21 23 42 8 12 -9 19 -16 14 -16 -5 0 -3 -6 3 -14 10 -11 8
-15 -6 -19 -15 -4 -14 -5 4 -6 12 0 25 -5 28 -11 4 -6 12 -6 23 0 9 5 30 11
45 15 15 3 25 10 22 14 -3 5 -1 11 4 13 5 1 3 8 -4 15 -11 10 -18 7 -37 -12
-13 -14 -28 -25 -35 -25 -12 0 -39 39 -34 50 1 3 -8 6 -19 8 -16 3 -19 8 -14
25 3 12 10 26 15 31 15 16 10 26 -11 26 -11 0 -20 -6 -20 -13 0 -49 -56 -91
-81 -61 -6 8 -19 14 -29 14 -10 0 -20 7 -24 15 -4 12 0 14 22 9 l27 -6 -25 21
c-26 21 -47 22 -42 2 1 -7 -2 -10 -8 -6 -5 3 -10 13 -10 21 0 8 -4 14 -10 14
-5 0 -10 7 -10 15 0 9 10 15 26 15 14 0 23 4 19 10 -3 6 -17 10 -29 10 -27 0
-87 51 -68 58 18 6 15 23 -10 49 -12 13 -23 33 -25 45 -4 28 -7 30 -27 22 -12
-5 -14 -10 -5 -20 18 -22 0 -38 -22 -18 -20 18 -26 59 -9 69 6 4 10 3 9 -2 -6
-35 2 -28 46 40 17 27 17 27 -8 27 -27 0 -70 -37 -61 -51 6 -11 -28 -27 -45
-21 -11 4 -11 6 0 13 11 8 11 11 -3 20 -33 19 -22 40 20 37 41 -3 57 15 18 20
l-25 3 32 29 c18 16 27 30 21 30 -7 0 -14 -7 -18 -15 -3 -8 -12 -15 -21 -15
-8 0 -15 7 -15 15 0 8 7 15 15 15 8 0 15 5 15 10 0 16 -28 11 -42 -8 -7 -9
-25 -23 -40 -29 -29 -13 -62 -8 -52 8 3 5 10 7 15 4 5 -3 6 1 3 9 -3 9 -12 16
-19 16 -24 0 -26 19 -5 40 11 11 20 16 20 10 0 -5 7 -10 15 -10 8 0 15 -4 15
-9 0 -5 9 -11 20 -14 21 -5 27 7 9 18 -7 5 -4 14 8 27 14 16 14 20 3 16 -8 -3
-28 1 -45 10 -22 10 -27 11 -17 1 6 -7 12 -20 12 -29 0 -12 -2 -12 -9 -2 -6
11 -16 9 -46 -8 -29 -17 -40 -18 -46 -9 -10 17 -2 29 21 29 24 0 31 12 20 30
-7 12 -12 12 -28 -3 -18 -16 -20 -16 -40 1 -25 22 -19 34 13 26 13 -3 26 0 31
7 9 15 -64 80 -87 76 -17 -2 -49 20 -49 34 0 15 40 10 46 -6 4 -8 10 -15 15
-15 4 0 6 7 3 15 -7 17 11 21 19 5 3 -6 4 -5 3 2 -2 7 -9 13 -17 13 -8 0 -20
5 -27 12 -7 7 -19 10 -28 6 -16 -6 -57 25 -49 37 3 5 14 6 25 3 31 -8 15 19
-22 38 -35 17 -48 39 -24 39 9 0 16 -7 16 -15 0 -8 6 -15 14 -15 12 0 13 7 5
32 -10 37 -29 60 -29 36 0 -9 -9 -18 -19 -21 -18 -4 -18 -3 -5 30 15 36 9 69
-8 39 -11 -20 -20 -15 -49 26 l-23 31 22 -5 c12 -4 20 -2 16 3 -3 5 -1 9 5 9
5 0 13 -4 16 -10 3 -5 12 -10 18 -10 7 1 1 10 -12 21 -19 15 -26 17 -32 7 -7
-10 -9 -10 -9 0 0 7 -11 17 -25 22 -26 10 -35 40 -12 40 24 0 57 -12 52 -19
-2 -4 6 -7 18 -7 13 1 22 -5 22 -14 0 -10 12 -16 33 -18 36 -4 42 11 15 40 -9
10 -30 18 -50 18 -30 0 -50 20 -20 20 7 0 5 5 -5 10 -10 6 -26 7 -40 1 -25 -9
-68 2 -68 19 0 5 0 12 0 15 0 3 3 5 8 6 4 1 15 5 26 11 13 7 16 7 11 -1 -5 -8
1 -10 18 -6 15 4 30 1 40 -9 8 -9 22 -16 29 -16 11 0 11 2 0 9 -8 4 -13 11
-13 15 3 20 -2 26 -31 40 -28 14 -34 14 -61 1 -33 -16 -47 -12 -47 14 0 22
-29 63 -30 41 0 -9 -8 -2 -20 15 -20 30 -14 44 19 45 11 0 11 -3 1 -15 -8 -9
-8 -15 -2 -15 6 0 19 -3 29 -7 16 -6 16 -5 4 10 -12 15 -11 17 3 17 29 0 31
-1 28 -14 -2 -13 26 -26 56 -26 6 0 12 11 12 24 0 27 -20 36 -88 39 -41 3 -63
18 -58 41 2 6 1 8 -1 4 -8 -15 -20 -8 -32 19 -11 23 -10 25 3 13 21 -17 20 -7
-4 32 -22 37 -25 48 -10 48 6 0 15 -11 20 -25 8 -22 12 -24 24 -13 8 7 12 16
9 21 -2 4 5 7 16 7 12 0 21 4 21 9 0 10 -66 25 -78 17 -14 -8 -30 8 -38 38 -6
26 -5 29 15 23 25 -6 40 10 17 19 -9 3 -13 10 -10 15 3 6 -5 7 -21 3 -24 -6
-27 -5 -20 15 4 14 2 23 -9 27 -22 8 -20 31 4 46 28 18 25 26 -7 20 -23 -4
-25 -2 -21 16 4 13 0 23 -8 26 -20 8 -17 23 6 29 12 3 20 14 20 26 0 17 -6 21
-30 21 -24 0 -33 6 -41 27 -14 37 -6 67 9 31 11 -27 30 -44 38 -35 10 10 -47
108 -58 101 -7 -5 -9 0 -6 14 3 12 1 23 -6 26 -6 2 -1 5 10 5 14 1 21 7 20 19
-1 21 41 19 63 -3 10 -10 19 -11 37 -3 33 15 74 -4 74 -34 0 -13 7 -54 16 -93
8 -38 17 -82 18 -98 2 -15 6 -30 10 -34 3 -3 6 -18 6 -32 0 -15 18 -78 41
-141 22 -63 43 -127 45 -142 3 -14 28 -77 55 -140 28 -62 53 -122 56 -133 3
-11 9 -24 13 -30 4 -5 38 -68 75 -140 37 -71 74 -138 82 -147 9 -10 13 -24 10
-33 -4 -8 -2 -14 4 -12 6 1 16 -7 22 -18 20 -33 189 -270 252 -351 99 -129
330 -367 456 -469 190 -155 327 -255 478 -347 79 -49 340 -183 431 -222 36
-15 84 -36 107 -47 37 -17 161 -60 328 -112 93 -29 205 -57 267 -67 35 -5 86
-14 113 -20 46 -10 184 -31 295 -45 100 -13 514 -17 623 -6 268 28 315 35 567
91 461 102 905 309 1365 636 158 113 435 379 593 570 61 74 180 242 241 339
24 39 52 82 62 97 11 15 19 30 19 34 0 3 8 18 19 32 26 37 122 229 166 332 59
137 112 299 186 570 15 56 15 56 23 105 15 101 18 115 24 111 4 -2 6 17 6 43
-1 26 2 72 7 102 5 30 10 88 13 129 2 41 5 80 6 85 1 6 2 15 1 20 0 6 -3 93
-6 195 -5 196 -10 267 -20 300 -6 17 -2 20 29 20 30 0 40 6 56 32 10 17 17 35
15 39 -3 4 2 12 10 19 13 10 13 14 0 27 -18 17 -19 33 -4 33 5 0 7 -4 4 -10
-3 -5 -2 -10 3 -10 5 0 13 10 17 23 8 21 8 21 12 -5 2 -16 10 -28 16 -28z
m-2708 -844 c43 -8 181 -50 245 -76 72 -28 185 -90 285 -155 153 -100 194
-125 212 -132 10 -3 29 -14 43 -23 43 -28 189 -81 269 -97 140 -27 323 -1 481
70 31 14 116 62 190 108 118 72 142 83 191 87 45 3 65 -1 105 -21 58 -30 83
-69 59 -93 -26 -27 -38 -54 -22 -54 7 0 19 6 26 13 11 10 11 8 2 -11 -9 -18
-47 -42 -64 -42 -1 0 -3 12 -4 27 0 15 2 21 7 14 5 -9 9 -5 13 11 10 37 8 48
-8 42 -21 -8 -19 13 3 25 18 11 18 11 -15 15 -19 2 -23 -2 -23 -25 0 -15 -5
-31 -10 -34 -6 -4 -8 -10 -5 -15 3 -4 -11 -15 -30 -24 -42 -20 -45 -29 -7 -20
25 7 26 6 13 -10 -8 -10 -22 -15 -32 -13 -11 3 -19 -2 -22 -15 -3 -11 -10 -17
-16 -13 -6 3 -23 -5 -38 -19 -15 -15 -23 -26 -17 -26 5 0 15 5 22 12 6 6 14 9
17 7 2 -3 -18 -31 -46 -63 -28 -31 -54 -55 -57 -52 -2 3 9 21 27 41 31 36 42
56 19 37 -7 -6 -15 -10 -18 -11 -20 0 -43 -18 -51 -38 -7 -18 -14 -23 -29 -18
-11 3 -20 2 -20 -2 0 -19 -62 -54 -99 -57 l-40 -3 17 23 c9 13 29 26 44 29 34
8 47 25 19 25 -12 0 -21 5 -21 10 0 10 28 14 80 12 16 0 18 1 8 5 -27 7 -22
18 17 32 33 12 74 55 63 66 -3 3 -16 -5 -29 -17 -41 -38 -71 -54 -137 -73 -46
-14 -69 -27 -84 -48 -25 -35 -17 -46 13 -18 23 21 39 27 39 13 0 -14 -110
-122 -125 -122 -19 0 -19 14 0 30 15 13 15 21 -2 23 -4 0 -14 7 -21 14 -19 18
-30 16 -37 -7 -3 -11 -11 -20 -16 -20 -16 0 -10 13 19 43 l27 28 -27 -10 c-22
-8 -29 -7 -37 7 -8 15 -11 14 -20 -10 -8 -21 -16 -27 -33 -25 -18 2 -23 -3
-23 -23 0 -14 -6 -29 -12 -33 -7 -4 -13 -15 -13 -22 0 -8 -4 -15 -9 -15 -5 0
-18 -3 -28 -7 -17 -6 -17 -5 1 15 21 24 16 28 -14 12 -29 -16 -32 4 -5 30 35
33 31 43 -7 20 -56 -34 -54 -22 5 36 61 60 69 81 18 44 -28 -20 -36 -19 -32 3
1 5 -3 6 -9 2 -5 -3 -10 -15 -10 -27 0 -16 -5 -19 -21 -15 -20 5 -21 3 -15
-34 4 -27 3 -38 -4 -34 -5 3 -10 -1 -10 -9 0 -8 -7 -22 -16 -30 -19 -20 -64
-21 -64 -2 0 25 12 46 26 46 19 0 18 -10 -2 -25 -15 -11 -15 -12 5 -18 14 -3
21 -1 21 8 0 7 5 15 11 17 16 5 1 48 -17 48 -8 0 -17 7 -20 15 -4 8 -14 15
-23 15 -31 0 -32 -13 -4 -26 25 -11 26 -12 6 -13 -12 -1 -25 4 -28 9 -4 6 -16
8 -27 4 -17 -5 -18 -4 -8 15 6 12 16 19 22 15 6 -4 8 1 4 14 -4 11 0 37 8 56
8 20 11 36 5 36 -5 0 -9 -5 -9 -10 0 -7 -7 -7 -20 0 -11 6 -25 8 -32 4 -6 -4
-20 -7 -32 -8 -13 -1 -32 -18 -51 -48 -33 -52 -51 -62 -41 -22 7 25 6 25 -10
10 -15 -16 -18 -15 -40 9 -17 19 -24 22 -24 11 0 -10 -9 -16 -21 -16 -14 0
-19 5 -16 13 3 8 -1 14 -9 14 -8 0 -14 -6 -14 -14 0 -7 -10 -13 -21 -13 -18 0
-19 2 -9 15 7 8 8 15 2 15 -5 0 -15 -7 -22 -15 -21 -26 -31 -16 -13 13 17 25
17 26 0 13 -15 -12 -17 -11 -17 2 0 8 6 17 13 20 15 6 0 22 -28 31 -15 4 -23
-1 -33 -21 -9 -20 -9 -24 0 -15 14 14 38 16 38 3 0 -5 -9 -19 -19 -32 -15 -19
-22 -21 -32 -12 -9 9 -17 8 -37 -7 -35 -28 -52 -12 -18 17 15 12 22 23 17 23
-22 0 -10 18 19 30 32 13 34 17 20 40 -8 12 -11 12 -28 -3 -10 -9 -22 -14 -25
-10 -4 3 -23 -10 -42 -30 -20 -21 -40 -37 -45 -37 -19 0 -20 19 -2 29 11 6 22
20 25 31 4 15 2 19 -6 12 -19 -15 -67 -12 -67 4 0 12 -5 11 -26 -2 -35 -23
-55 -4 -22 22 25 20 36 66 15 61 -6 -1 -18 -10 -25 -19 -7 -9 -27 -24 -44 -33
-27 -13 -34 -13 -46 -2 -11 12 -11 17 3 31 26 26 12 29 -19 5 -31 -25 -43 -20
-26 11 6 12 9 24 6 27 -3 4 -2 11 4 17 11 14 -4 41 -18 32 -6 -4 -9 -13 -6
-21 4 -8 -1 -18 -10 -21 -9 -3 -16 -15 -16 -25 0 -12 -7 -19 -20 -19 -28 0
-36 27 -15 50 16 18 17 20 2 20 -10 0 -17 -5 -17 -12 0 -6 -3 -8 -7 -5 -3 4
-13 1 -22 -7 -10 -9 -27 -12 -43 -9 -24 5 -27 9 -22 32 4 14 11 30 15 36 13
14 11 31 -2 18 -6 -6 -17 -10 -23 -9 -6 2 -8 1 -3 -1 13 -8 7 -36 -10 -49 -25
-19 -40 -17 -75 7 -22 16 -32 19 -41 10 -15 -15 -84 -14 -89 1 -3 9 -13 8 -39
-4 -19 -9 -45 -19 -58 -23 -21 -6 -23 -5 -18 14 7 28 -1 27 -35 -6 -24 -23
-30 -25 -38 -13 -8 12 -13 11 -30 -8 -17 -18 -25 -21 -36 -11 -11 9 -14 8 -14
-8 0 -14 -11 -23 -35 -30 -41 -13 -59 2 -21 17 14 5 26 11 26 14 0 2 3 12 7
21 5 15 3 16 -16 6 -12 -7 -26 -9 -31 -6 -5 3 -14 -11 -21 -30 -14 -37 -14
-37 -69 -39 -19 -1 -36 -5 -37 -11 -1 -5 5 -9 14 -7 9 2 13 -2 11 -10 -3 -7
-15 -13 -28 -13 -13 0 -25 -6 -27 -12 -7 -19 -69 -54 -86 -48 -9 4 -16 -1 -20
-14 -6 -23 -27 -29 -27 -8 0 7 5 18 12 25 7 7 8 12 2 12 -12 0 -37 -40 -30
-47 3 -3 -6 -15 -20 -26 -17 -13 -29 -16 -35 -10 -7 7 -1 16 17 28 19 12 23
19 14 25 -17 11 -60 -12 -60 -32 0 -9 -5 -20 -11 -23 -5 -4 -15 -19 -21 -33
-9 -22 -12 -24 -15 -9 -3 10 1 24 7 32 10 12 9 15 -5 15 -9 0 -19 -8 -22 -18
-2 -10 -18 -26 -34 -36 -16 -10 -29 -26 -29 -37 0 -10 -4 -19 -10 -19 -5 0
-10 7 -10 15 0 8 -4 15 -10 15 -5 0 -10 -4 -10 -10 0 -15 -27 -12 -33 4 -4 9
2 17 14 21 10 4 19 11 19 16 0 18 -17 9 -49 -27 -31 -34 -60 -41 -68 -17 -2 6
6 13 18 15 12 2 24 9 27 16 8 25 -24 10 -73 -34 -27 -25 -44 -43 -37 -39 22
12 12 -14 -12 -30 -13 -9 -26 -25 -29 -35 -3 -12 -14 -20 -25 -20 -12 0 -24
-4 -27 -10 -10 -15 -35 -12 -35 5 0 20 -17 19 -28 -1 -9 -17 -73 -44 -104 -44
-29 0 -20 18 12 25 31 7 38 19 19 30 -17 11 29 48 49 39 9 -4 26 -6 37 -5 15
1 17 0 7 -7 -11 -7 -10 -11 4 -16 12 -5 26 3 45 24 15 16 31 30 35 30 4 0 -1
-9 -10 -19 -10 -11 -13 -21 -7 -25 5 -3 19 7 30 23 l21 28 -52 5 c-34 4 -56
12 -65 23 -7 10 -15 16 -19 13 -10 -11 16 -48 33 -48 9 0 13 -3 9 -7 -12 -12
-108 -9 -113 4 -4 10 -10 9 -26 -2 -12 -8 -30 -15 -39 -15 -10 0 -34 -16 -52
-35 -36 -37 -56 -44 -56 -22 0 8 12 20 28 27 21 10 23 14 10 17 -9 2 -27 -1
-39 -7 -17 -10 -23 -9 -30 1 -14 22 -11 27 15 22 20 -4 45 12 35 22 -2 1 -33
-1 -69 -5 -36 -4 -53 -8 -38 -9 20 -1 25 -5 21 -20 -8 -31 -47 -46 -82 -31
-17 7 -31 16 -31 20 0 16 13 17 38 4 66 -34 69 -8 3 34 -45 29 -52 31 -95 23
-43 -8 -48 -7 -63 15 -13 21 -42 36 -29 16 2 -4 -2 -16 -10 -27 -13 -18 -20
-10 -15 18 0 4 -3 7 -9 7 -5 0 -10 -9 -10 -20 0 -20 -11 -26 -23 -13 -4 3 -2
12 4 20 9 10 8 13 -5 13 -9 0 -16 -5 -16 -11 0 -6 -7 -4 -15 5 -18 18 -19 36
-2 37 6 1 19 2 27 3 8 2 30 3 48 4 l32 2 -21 21 c-19 19 -21 19 -33 4 -10 -15
-16 -15 -34 -6 -20 10 -23 9 -32 -14 -8 -21 -13 -24 -29 -16 -10 6 -24 24 -31
41 -14 34 -14 34 -42 19 -23 -13 -72 6 -61 24 3 6 1 7 -5 4 -12 -8 -42 2 -42
14 0 5 9 9 19 9 11 0 23 5 26 10 4 6 16 9 28 8 12 -2 22 2 22 7 0 12 -55 15
-70 4 -19 -14 -90 -15 -87 -1 1 6 -4 12 -10 12 -22 0 -118 55 -115 65 2 5 14
12 28 15 15 4 20 8 12 13 -7 4 -23 5 -37 1 -13 -3 -33 -1 -45 5 -14 8 -26 8
-38 1 -24 -14 -138 20 -138 41 0 9 8 13 23 12 24 -3 30 14 8 23 -8 3 -25 -4
-37 -15 -24 -22 -44 -27 -53 -13 -3 5 -23 7 -45 5 -30 -2 -41 1 -41 11 0 8 -7
16 -15 20 -9 3 -15 0 -15 -9 0 -12 -11 -14 -57 -10 -44 3 -62 0 -75 -12 -17
-15 -18 -15 -18 5 0 12 7 25 16 30 13 7 9 9 -14 8 -28 -1 -30 -4 -25 -25 5
-20 3 -23 -12 -17 -11 4 -22 0 -30 -11 -13 -17 -14 -17 -32 0 -25 22 -35 22
-31 0 2 -12 -5 -19 -20 -21 -20 -3 -22 0 -17 21 4 16 2 26 -8 30 -9 3 -14 -1
-13 -11 1 -11 -8 -18 -26 -20 -32 -4 -35 -10 -12 -27 16 -11 16 -12 0 -18 -10
-4 -19 -1 -23 8 -4 12 -9 13 -19 4 -8 -6 -14 -17 -14 -24 0 -20 -33 -24 -53
-6 -16 13 -19 13 -27 1 -8 -12 -13 -13 -28 -3 -16 9 -24 8 -43 -5 -16 -11 -24
-12 -27 -4 -2 7 -13 17 -24 23 -16 9 -19 8 -12 -2 21 -34 41 -49 66 -49 31 0
37 -14 12 -24 -18 -7 -57 15 -88 48 -14 16 -18 17 -13 4 4 -11 0 -18 -11 -21
-14 -4 -13 -6 6 -12 20 -7 21 -9 9 -24 -8 -9 -22 -31 -31 -49 -16 -31 -41 -37
-29 -7 3 8 0 15 -6 15 -6 0 -11 -9 -11 -20 0 -22 -3 -23 -37 -14 -13 4 -20 11
-16 17 4 6 1 7 -6 3 -7 -5 -17 -1 -24 8 -10 14 -17 14 -45 4 -21 -8 -35 -9
-40 -3 -12 17 -52 36 -52 25 0 -5 3 -10 8 -10 4 0 20 -12 35 -26 27 -25 27
-27 10 -40 -21 -16 -63 -19 -63 -4 0 6 11 10 25 10 14 0 25 5 25 11 0 6 -7 9
-15 5 -8 -3 -15 0 -16 7 0 7 -2 8 -5 2 -4 -11 -47 -11 -129 -1 -35 4 -44 3
-30 -3 11 -5 30 -10 42 -10 13 -1 29 -14 41 -33 24 -40 40 -104 23 -94 -6 4
-11 13 -11 19 0 7 -7 23 -16 35 -12 18 -19 20 -35 12 -13 -7 -19 -7 -19 0 0 5
6 10 14 10 8 0 17 7 20 16 5 13 2 15 -16 11 -14 -4 -29 0 -40 10 -27 24 -49 1
-25 -25 21 -23 21 -32 3 -32 -19 0 -41 57 -37 99 4 44 59 130 84 131 4 0 16 8
27 18 10 9 92 63 182 119 289 180 477 255 714 283 264 32 516 -32 775 -196 21
-13 41 -24 44 -24 3 0 53 -32 112 -71 97 -66 209 -124 308 -161 37 -14 126
-31 218 -42 89 -10 298 39 410 95 23 12 116 68 207 124 158 98 337 194 390
210 14 4 30 11 35 15 12 8 101 35 180 54 59 14 347 16 420 2z"/>
</g>
</svg>
